<mxfile host="app.diagrams.net" modified="2024-02-09T02:45:51.081Z" agent="Mozilla/5.0 (Windows NT 10.0; Win64; x64) AppleWebKit/537.36 (KHTML, like Gecko) Chrome/121.0.0.0 Safari/537.36" etag="mkChNsS_h6y04Z81v99I" version="23.1.2" type="device">
  <diagram name="PÃ¡gina-1" id="tdzSoufDyK4EUonDIDz6">
    <mxGraphModel dx="1434" dy="738" grid="1" gridSize="10" guides="1" tooltips="1" connect="1" arrows="1" fold="1" page="1" pageScale="1" pageWidth="827" pageHeight="1169" math="0" shadow="0">
      <root>
        <mxCell id="0" />
        <mxCell id="1" parent="0" />
        <mxCell id="KLQGm_FjVOcyDm_iqqxk-1" value="Administrador" style="shape=umlActor;verticalLabelPosition=bottom;verticalAlign=top;html=1;outlineConnect=0;" parent="1" vertex="1">
          <mxGeometry x="90" y="320" width="30" height="60" as="geometry" />
        </mxCell>
        <mxCell id="KLQGm_FjVOcyDm_iqqxk-5" value="Establecer grupos" style="ellipse;whiteSpace=wrap;html=1;" parent="1" vertex="1">
          <mxGeometry x="300" y="400" width="100" height="40" as="geometry" />
        </mxCell>
        <mxCell id="KLQGm_FjVOcyDm_iqqxk-6" value="Crear usuario" style="ellipse;whiteSpace=wrap;html=1;" parent="1" vertex="1">
          <mxGeometry x="334" y="330" width="80" height="40" as="geometry" />
        </mxCell>
        <mxCell id="KLQGm_FjVOcyDm_iqqxk-12" value="Introducir alumnos" style="ellipse;whiteSpace=wrap;html=1;" parent="1" vertex="1">
          <mxGeometry x="165" y="440" width="100" height="40" as="geometry" />
        </mxCell>
        <mxCell id="KLQGm_FjVOcyDm_iqqxk-13" value="Establecer horarios" style="ellipse;whiteSpace=wrap;html=1;" parent="1" vertex="1">
          <mxGeometry x="175" y="220" width="80" height="40" as="geometry" />
        </mxCell>
        <mxCell id="KLQGm_FjVOcyDm_iqqxk-15" value="Establecer cursos" style="ellipse;whiteSpace=wrap;html=1;" parent="1" vertex="1">
          <mxGeometry x="260" y="260" width="80" height="40" as="geometry" />
        </mxCell>
        <mxCell id="WmOYMfZMdK5wBJlb1Zbk-1" value="" style="endArrow=none;html=1;rounded=0;entryX=0.5;entryY=1;entryDx=0;entryDy=0;exitX=0.5;exitY=0.5;exitDx=0;exitDy=0;exitPerimeter=0;" edge="1" parent="1" source="KLQGm_FjVOcyDm_iqqxk-1" target="KLQGm_FjVOcyDm_iqqxk-13">
          <mxGeometry width="50" height="50" relative="1" as="geometry">
            <mxPoint x="110" y="390" as="sourcePoint" />
            <mxPoint x="160" y="340" as="targetPoint" />
          </mxGeometry>
        </mxCell>
        <mxCell id="WmOYMfZMdK5wBJlb1Zbk-3" value="" style="endArrow=none;html=1;rounded=0;entryX=0;entryY=0.5;entryDx=0;entryDy=0;" edge="1" parent="1" source="KLQGm_FjVOcyDm_iqqxk-1" target="KLQGm_FjVOcyDm_iqqxk-15">
          <mxGeometry width="50" height="50" relative="1" as="geometry">
            <mxPoint x="115" y="360" as="sourcePoint" />
            <mxPoint x="225" y="270" as="targetPoint" />
          </mxGeometry>
        </mxCell>
        <mxCell id="WmOYMfZMdK5wBJlb1Zbk-4" value="" style="endArrow=none;html=1;rounded=0;entryX=0;entryY=0.5;entryDx=0;entryDy=0;exitX=0.5;exitY=0.5;exitDx=0;exitDy=0;exitPerimeter=0;" edge="1" parent="1" source="KLQGm_FjVOcyDm_iqqxk-1" target="KLQGm_FjVOcyDm_iqqxk-6">
          <mxGeometry width="50" height="50" relative="1" as="geometry">
            <mxPoint x="125" y="370" as="sourcePoint" />
            <mxPoint x="235" y="280" as="targetPoint" />
          </mxGeometry>
        </mxCell>
        <mxCell id="WmOYMfZMdK5wBJlb1Zbk-5" value="" style="endArrow=none;html=1;rounded=0;entryX=0;entryY=0.5;entryDx=0;entryDy=0;" edge="1" parent="1" source="KLQGm_FjVOcyDm_iqqxk-1" target="KLQGm_FjVOcyDm_iqqxk-5">
          <mxGeometry width="50" height="50" relative="1" as="geometry">
            <mxPoint x="115" y="360" as="sourcePoint" />
            <mxPoint x="344" y="360" as="targetPoint" />
          </mxGeometry>
        </mxCell>
        <mxCell id="WmOYMfZMdK5wBJlb1Zbk-6" value="" style="endArrow=none;html=1;rounded=0;entryX=0.5;entryY=0;entryDx=0;entryDy=0;exitX=0.5;exitY=0.5;exitDx=0;exitDy=0;exitPerimeter=0;" edge="1" parent="1" source="KLQGm_FjVOcyDm_iqqxk-1" target="KLQGm_FjVOcyDm_iqqxk-12">
          <mxGeometry width="50" height="50" relative="1" as="geometry">
            <mxPoint x="125" y="370" as="sourcePoint" />
            <mxPoint x="354" y="370" as="targetPoint" />
          </mxGeometry>
        </mxCell>
      </root>
    </mxGraphModel>
  </diagram>
</mxfile>
